PathFileType	4	(X/Y/Z)	8_2_58_p1_0-181_filt_butterworth.trc
DataRate	CameraRate	NumFrames	NumMarkers	Units	OrigDataRate	OrigDataStartFrame	OrigNumFrames
60.0	60.0	5	27	m	60.0	67	181
Frame#	Time	RHip			RKnee			RAnkle			RBigToe			RSmallToe			RHeel			LHip			LKnee			LAnkle			LBigToe			LSmallToe			LHeel			Neck			Head			Nose			RShoulder			RElbow			RWrist			RThumb			RIndex			RPinky			LShoulder			LElbow			LWrist			LThumb			LIndex			LPinky			
		X1	Y1	Z1	X2	Y2	Z2	X3	Y3	Z3	X4	Y4	Z4	X5	Y5	Z5	X6	Y6	Z6	X7	Y7	Z7	X8	Y8	Z8	X9	Y9	Z9	X10	Y10	Z10	X11	Y11	Z11	X12	Y12	Z12	X13	Y13	Z13	X14	Y14	Z14	X15	Y15	Z15	X16	Y16	Z16	X17	Y17	Z17	X18	Y18	Z18	X19	Y19	Z19	X20	Y20	Z20	X21	Y21	Z21	X22	Y22	Z22	X23	Y23	Z23	X24	Y24	Z24	X25	Y25	Z25	X26	Y26	Z26	X27	Y27	Z27	
67	1.1166666666666667	0.24237836352890077	0.8417563734605824	0.7071462222090512	0.26397702659497485	0.3152655236370481	0.7903676809577338	0.23127277359333562	-0.13996422690981772	0.8994127138977306	0.20892212628661053	-0.15449153290557688	0.6847333316497067	0.2746927472768623	-0.17138009122500733	0.7354254273707457	0.21872532364593839	-0.19249026866455163	0.9502890127386137	0.04156288605465297	0.8323024015825273	0.747415872798644	0.03209783150075768	0.34444538546032344	0.7832478818984931	0.031563201120204054	-0.0995738284637629	0.848988545398975	0.05118777307142648	-0.16686421701819412	0.7111561179221539	-0.006995749707249617	-0.13446514974498958	0.7239839655772946	0.058057267945311734	-0.18872245137298113	0.9532337599552358	0.17781335792292613	1.4052413082281328	0.7381491800790716	0.20479714075224006	1.6655822059940986	0.6419720933026456	0.1802948251583142	1.5292536079178065	0.5709905347193271	0.3302466016184466	1.3127628710901622	0.7044474327607262	0.2824325838528225	1.1083019773201288	0.5838489074696936	0.19808740399156313	1.2945408357660826	0.5348116356458238	0.1663871952222271	1.395893214113427	0.5867026650056544	0.1539844049885905	1.4108374314426488	0.5749903827457895	0.07699231518923616	1.351233670894316	0.6852575593449093	0.002665738612256812	1.3216442385650116	0.7724009423423899	-0.019088360543377914	1.033057037429775	0.8789807414456136	0.23709769043116913	1.0514784800779688	0.6360439547630425	0.2975651242016932	1.0205923852512235	0.7177081062802424	0.3002376321216581	1.0110550600175878	0.7100913315910632	0.2881999064910054	0.9921049750777391	0.6860907097737688	
68	1.1333333333333333	0.24208520211379164	0.8414287998455826	0.7071892675934921	0.26401782440854965	0.3152691286689341	0.7896832941478376	0.23128337374607094	-0.13973895039498982	0.8993770786646793	0.20898262514297755	-0.15447985574004722	0.6847065077778894	0.27449886756686664	-0.17056207458471856	0.734140101177718	0.21878155118121603	-0.19308623664949223	0.9504792756823062	0.041659059791355896	0.831729096041363	0.7471578540048233	0.03205359514679685	0.3446079600511457	0.7833799812175564	0.031539785021310406	-0.0994717847475566	0.8490276748053176	0.05175409217174051	-0.1652666977621386	0.708630314445217	-0.0070004509963615315	-0.13442960374253604	0.7238979035134923	0.058105773333223365	-0.18878780805958625	0.9534453607059293	0.1782630423976751	1.4043506447853864	0.7371711224733954	0.20347308634444045	1.6651926160547692	0.6394618180079417	0.1783535168240018	1.5288971491208019	0.5688089732344825	0.3301477759793342	1.3130521469787324	0.7048322830723588	0.2815454609269551	1.1082572048098516	0.583940628921324	0.1975847623389786	1.2937102739935387	0.5363963861899272	0.16583576522688542	1.3960686241046871	0.5853623649103421	0.15300721247732296	1.4100417917570702	0.5739440858046695	0.06665332323478587	1.3474164885715965	0.7106659434906932	0.003535635452778821	1.3218320955056069	0.7704320570321022	-0.018986113814089836	1.0324619059468416	0.8747636381523993	0.2360467536961073	1.052264573786116	0.6318602083294268	0.2964704203862053	1.0188299416177025	0.7147015477434933	0.2975300405177471	1.007695393409235	0.7112537621045654	0.28639645472138664	0.9927375227965286	0.6849143303089114	
69	1.15	0.2418604160672186	0.8411180795304524	0.7073821204128691	0.264168167648334	0.3151589755473703	0.7892933041091119	0.2313166877430156	-0.13962347098955616	0.8996094716777355	0.20899443328745612	-0.15444562554579425	0.6846640651296133	0.27407574092041165	-0.16954946425981554	0.7325397134201138	0.21881430094060475	-0.19371111395471988	0.9506370907766316	0.04184093113194974	0.8312718934589131	0.7467070082695302	0.03202096744932289	0.344707704842769	0.783474700291254	0.03161189374335518	-0.09946299624961771	0.8491493602912472	0.052981096680102445	-0.16329139409438573	0.7055199938665689	-0.00698661134988975	-0.13440772099295073	0.7238416441546476	0.05813781495755401	-0.1886095281008598	0.9536361403700385	0.17842262609518003	1.4034840404237565	0.7369353150804181	0.20191888461810037	1.6648217463050177	0.6367095060750589	0.17636608445904517	1.5283894544108134	0.5669747688952986	0.3300453858564072	1.3136570413654962	0.7050649264995592	0.2810607138490222	1.1081996621134826	0.5841265861618492	0.19656212885263913	1.2929437041921286	0.5377091943302514	0.16515983645894589	1.3963894157958192	0.583182625606731	0.1521154547146713	1.4098594614613886	0.5724661419814567	0.06101283338902367	1.3455454082731593	0.7239682667999843	0.004487360766776283	1.3223347096657139	0.7679170062531273	-0.019551888401557936	1.0321886582735456	0.8716656854944038	0.23345316052667775	1.05026273855936	0.6313719462483102	0.29615914904675167	1.0177525074896387	0.7116901956233093	0.2957914930708747	1.0048110395371197	0.7120956481801747	0.28518760459802267	0.9929841780703917	0.6837253453731374	
70	1.1666666666666667	0.2416226032283287	0.8407739769570077	0.7077399077336017	0.2643870039337069	0.3149865981301627	0.7894329672399409	0.23134534301218992	-0.13955950472012324	0.8999269160838737	0.20899277151238738	-0.15439850314477488	0.6846220024864329	0.27353120695686944	-0.1682729003290803	0.7305345331515323	0.2188254741802481	-0.19434752133262495	0.9507702773604327	0.04209634174090814	0.8309396941710661	0.7460986320550782	0.031999302517070456	0.3447474472061073	0.7835375216770482	0.03180635850210791	-0.09960719677925962	0.8494119164336518	0.05446495670129264	-0.16136294306958784	0.7024976755777792	-0.006957140614627968	-0.13440052488940096	0.7238294790564086	0.058140581316750414	-0.18820717680199242	0.953838761261084	0.17839321212407025	1.4027453346805066	0.7370692216121962	0.20032766346115033	1.6644148849357117	0.634023504547228	0.17460987473242967	1.5277986164731725	0.565760239334798	0.32997457957772536	1.3143132891663722	0.7051393375765194	0.28093335707501554	1.1081477053699678	0.5842996175101411	0.19522495440170956	1.2922323572168772	0.538684406815817	0.16447416541840665	1.3966015474608562	0.580785626143068	0.15138205370480814	1.4098699227116969	0.5705213312044953	0.05998563971197331	1.3454761326542455	0.7247364945889043	0.005226271184588382	1.3230257465579764	0.7652139641261639	-0.02054773180903205	1.0324378774922596	0.8697386800947255	0.2316826221760407	1.0473809432800578	0.6310827206481074	0.29602383886156935	1.0170244039565055	0.7104585067775472	0.2952323108753016	1.0025533316189261	0.7125286252456364	0.28475044747773764	0.9927623665828822	0.6824063889570389	
71	1.1833333333333331	0.24136057161633048	0.8404149319342772	0.7081368312169324	0.2646424400040439	0.3147748509818133	0.7901094120596047	0.23135661330524118	-0.1394660695706209	0.9000785753637525	0.20899920559665242	-0.15434959432193696	0.684589023616843	0.27293054097744973	-0.16675804455444612	0.7281481378196567	0.21881692152577503	-0.19499202952275352	0.9508950086609658	0.04241198706286745	0.8307197147312233	0.7453565373808199	0.031989526975711086	0.3447319713608148	0.7835801398625881	0.03211869169990969	-0.09995637886147242	0.8499400760127771	0.05579840541369426	-0.15969358326857797	0.6998815011200912	-0.006920280071974966	-0.13439861569121153	0.7238475964373998	0.05811709769887763	-0.18766378138155027	0.9540422727061884	0.17831412858090784	1.4021641040331942	0.7372088792620524	0.19885846173920796	1.6638392484671807	0.6315657669376271	0.17324500863815565	1.5272056757192911	0.5652748975203654	0.3299349445024478	1.3148366539685787	0.70514392553678	0.2810628873473866	1.1081112741214663	0.5844194728085567	0.19400487379031817	1.2915325717765325	0.5394018351460541	0.16379045920016566	1.396598414510698	0.5784799012959712	0.1508469644509848	1.409772865551725	0.5682973068658362	0.06191553650227173	1.346450070002035	0.717433420696686	0.005500659812964279	1.3237023122825256	0.7626805673145844	-0.021613196829033333	1.0333575366157761	0.868697773325109	0.2303239892499072	1.043774991320035	0.6316279139539516	0.2950807824128828	1.0160257089742086	0.7123127079044028	0.29520932382947795	1.000309216008922	0.7131206515286493	0.284685340602238	0.9918266260072099	0.6818547231284416	
